<?xml version="1.0" encoding="UTF-8" standalone="no"?>
<!-- Created with Inkscape (http://www.inkscape.org/) -->
<svg xmlns:dc="http://purl.org/dc/elements/1.1/" xmlns:cc="http://creativecommons.org/ns#" xmlns:rdf="http://www.w3.org/1999/02/22-rdf-syntax-ns#" xmlns:svg="http://www.w3.org/2000/svg" xmlns="http://www.w3.org/2000/svg" xmlns:sodipodi="http://sodipodi.sourceforge.net/DTD/sodipodi-0.dtd" xmlns:inkscape="http://www.inkscape.org/namespaces/inkscape" width="213.30312mm" height="213.30312mm" viewBox="0 0 213.30312 213.30312" version="1.1" id="svg8" inkscape:version="0.92.1 r15371" sodipodi:docname="privacy-outline.svg">
  <defs id="defs2"/>
  <sodipodi:namedview id="base" pagecolor="#ffffff" bordercolor="#666666" borderopacity="1.0" inkscape:pageopacity="0.0" inkscape:pageshadow="2" inkscape:zoom="0.78393917" inkscape:cx="403.0925" inkscape:cy="403.0925" inkscape:document-units="mm" inkscape:current-layer="layer1" showgrid="false" fit-margin-top="0" fit-margin-left="0" fit-margin-right="0" fit-margin-bottom="0" inkscape:window-width="1440" inkscape:window-height="863" inkscape:window-x="0" inkscape:window-y="0" inkscape:window-maximized="1" showguides="false"/>
  <metadata id="metadata5">
    <rdf:RDF>
      <cc:Work rdf:about="">
        <dc:format>image/svg+xml</dc:format>
        <dc:type rdf:resource="http://purl.org/dc/dcmitype/StillImage"/>
        <dc:title/>
      </cc:Work>
    </rdf:RDF>
  </metadata>
  <g inkscape:label="Layer 1" inkscape:groupmode="layer" id="layer1" transform="translate(-0.02407837,-35.269325)">
    <circle style="opacity:1;fill:#ffffff;fill-opacity:1;stroke:none;stroke-width:0.31274402;stroke-linecap:round;stroke-linejoin:miter;stroke-miterlimit:4;stroke-dasharray:none;stroke-opacity:1" id="path4487-2-0-6" cx="-141.92088" cy="-106.67564" r="106.65156" transform="matrix(0,-1,-1,0,0,0)"/>
    <path style="color:#000000;font-style:normal;font-variant:normal;font-weight:normal;font-stretch:normal;font-size:medium;line-height:normal;font-family:sans-serif;font-variant-ligatures:normal;font-variant-position:normal;font-variant-caps:normal;font-variant-numeric:normal;font-variant-alternates:normal;font-feature-settings:normal;text-indent:0;text-align:start;text-decoration:none;text-decoration-line:none;text-decoration-style:solid;text-decoration-color:#000000;letter-spacing:normal;word-spacing:normal;text-transform:none;writing-mode:lr-tb;direction:ltr;text-orientation:mixed;dominant-baseline:auto;baseline-shift:baseline;text-anchor:start;white-space:normal;shape-padding:0;clip-rule:nonzero;display:inline;overflow:visible;visibility:visible;opacity:1;isolation:auto;mix-blend-mode:normal;color-interpolation:sRGB;color-interpolation-filters:linearRGB;solid-color:#000000;solid-opacity:1;vector-effect:none;fill:#000000;fill-opacity:1;fill-rule:nonzero;stroke:none;stroke-width:18.89763832;stroke-linecap:round;stroke-linejoin:miter;stroke-miterlimit:4;stroke-dasharray:none;stroke-dashoffset:0;stroke-opacity:1;color-rendering:auto;image-rendering:auto;shape-rendering:auto;text-rendering:auto;enable-background:accumulate" d="M 347.19727 214.24219 L 300.51172 263.10352 L 247.26758 221.48047 L 242.91406 288.91992 L 175.37109 291.26172 L 215.38281 345.7207 L 165.14844 390.92969 L 230.81445 406.93164 L 221.38281 473.85156 L 276.77344 446.47266 L 276.77344 425.39258 L 245.0918 441.05469 L 251.91211 392.61914 L 204.39453 381.03711 L 240.74414 348.32227 L 211.7832 308.9082 L 260.67188 307.21484 L 263.82031 258.40625 L 302.35352 288.52734 L 336.14648 253.16602 L 346.30078 301.01367 L 394.91016 295.64062 L 379.43555 324.72266 L 400.8457 324.72266 L 428.40625 272.92578 L 361.23242 280.34375 L 347.19727 214.24219 z M 326.67578 343.62109 C 309.33425 343.62109 295.67188 357.28937 295.67188 374.63086 L 295.67188 435.50977 L 387.56055 343.62109 L 326.67578 343.62109 z M 574.63281 343.62109 L 535.03516 383.21875 C 554.0765 393.55524 567.06641 413.7404 567.06641 436.83984 C 567.06641 470.39347 539.66105 497.79883 506.10742 497.79883 C 483.00643 497.79883 462.82379 484.80711 452.49023 465.76367 L 388.19727 530.05664 L 596.53516 530.05664 C 613.87669 530.05664 627.54688 516.38839 627.54688 499.04688 L 627.54688 374.63086 C 627.54688 357.28937 613.87669 343.62109 596.53516 343.62109 L 574.63281 343.62109 z M 520.8457 397.4082 L 466.68164 451.57227 C 472.61355 467.57956 487.95915 478.90039 506.10742 478.90039 C 529.44801 478.90039 548.16992 460.18043 548.16992 436.83984 C 548.16992 418.69368 536.85057 403.34371 520.8457 397.4082 z " transform="matrix(0.26458333,0,0,0.26458333,0.02407837,35.269325)" id="path4506"/>
    <path style="color:#000000;font-style:normal;font-variant:normal;font-weight:normal;font-stretch:normal;font-size:medium;line-height:normal;font-family:sans-serif;font-variant-ligatures:normal;font-variant-position:normal;font-variant-caps:normal;font-variant-numeric:normal;font-variant-alternates:normal;font-feature-settings:normal;text-indent:0;text-align:start;text-decoration:none;text-decoration-line:none;text-decoration-style:solid;text-decoration-color:#000000;letter-spacing:normal;word-spacing:normal;text-transform:none;writing-mode:lr-tb;direction:ltr;text-orientation:mixed;dominant-baseline:auto;baseline-shift:baseline;text-anchor:start;white-space:normal;shape-padding:0;clip-rule:nonzero;display:inline;overflow:visible;visibility:visible;opacity:1;isolation:auto;mix-blend-mode:normal;color-interpolation:sRGB;color-interpolation-filters:linearRGB;solid-color:#000000;solid-opacity:1;vector-effect:none;fill:#d40000;fill-opacity:1;fill-rule:nonzero;stroke:none;stroke-width:94.4881897;stroke-linecap:round;stroke-linejoin:miter;stroke-miterlimit:4;stroke-dasharray:none;stroke-dashoffset:0;stroke-opacity:1;color-rendering:auto;image-rendering:auto;shape-rendering:auto;text-rendering:auto;enable-background:accumulate" d="M 403.09375 14.830078 C 189.22175 14.830078 14.828125 189.21589 14.828125 403.08789 C 14.828125 616.9599 189.22175 791.35352 403.09375 791.35352 C 616.96576 791.35352 791.35742 616.9599 791.35742 403.08789 C 791.35742 189.21589 616.96576 14.830078 403.09375 14.830078 z M 415.66211 26.712891 L 443.06641 29.667969 C 452.23206 30.656041 458.77815 32.918329 462.70312 36.453125 C 466.65921 39.991269 468.27732 45.083442 467.56055 51.732422 C 467.06485 56.330779 465.5396 59.98482 462.98438 62.695312 C 460.4602 65.409154 456.88653 67.224788 452.26172 68.140625 C 454.65597 68.964486 456.70795 70.47378 458.41992 72.669922 C 460.16632 74.838343 461.81859 78.035424 463.375 82.257812 L 470.98438 103.06836 L 451.87695 101.00781 L 445.25977 82.802734 C 443.92605 79.138679 442.44226 76.574161 440.80859 75.109375 C 439.206 73.64794 436.944 72.760155 434.02344 72.445312 L 428.94336 71.896484 L 426.10547 98.228516 L 408.16211 96.294922 L 415.66211 26.712891 z M 301.70703 40.576172 L 306.23633 53.443359 L 277.31641 63.619141 L 281.64258 75.912109 L 308.83594 66.34375 L 313.36328 79.210938 L 286.16992 88.779297 L 291.49219 103.90234 L 321.38281 93.382812 L 325.91016 106.25 L 278.99609 122.75977 L 255.76562 56.742188 L 301.70703 40.576172 z M 504.47266 40.623047 L 550.44531 56.703125 L 545.94141 69.580078 L 517.00391 59.457031 L 512.70117 71.757812 L 539.91211 81.275391 L 535.4082 94.152344 L 508.19727 84.632812 L 502.9043 99.765625 L 532.81445 110.22852 L 528.31055 123.10352 L 481.36523 106.68164 L 504.47266 40.623047 z M 432.20312 41.650391 L 430.2793 59.5 L 437.83008 60.314453 C 441.58955 60.719729 444.35279 60.309919 446.11914 59.085938 C 447.91658 57.865306 448.98706 55.655287 449.33203 52.455078 C 449.67368 49.285939 449.09504 46.929363 447.5957 45.384766 C 446.12743 43.843517 443.51338 42.87012 439.75391 42.464844 L 432.20312 41.650391 z M 224.47266 74.402344 L 232.33789 86.953125 C 228.16816 87.537815 224.30109 88.430771 220.73828 89.630859 C 217.17547 90.830948 214.0176 92.293728 211.26367 94.019531 C 207.60943 96.309539 205.22452 98.505961 204.10742 100.60742 C 202.99032 102.70889 203.09433 104.8191 204.42188 106.9375 C 205.41752 108.5263 206.78044 109.406 208.50977 109.57617 C 210.24898 109.70326 212.86685 109.11264 216.36328 107.80664 L 223.69922 105.03516 C 231.12246 102.22719 237.06995 101.30315 241.54297 102.26172 C 246.01599 103.22029 249.81387 106.18777 252.93359 111.16602 C 257.03238 117.70659 258.13857 123.79991 256.25391 129.44336 C 254.37913 135.04373 249.45682 140.34106 241.48633 145.33594 C 237.72616 147.69232 233.72883 149.6994 229.49414 151.35742 C 225.25945 153.01544 220.80872 154.32929 216.14258 155.29883 L 208.05273 142.38867 C 213.10055 142.02818 217.70988 141.2622 221.87891 140.08789 C 226.05782 138.8705 229.78874 137.23152 233.07227 135.17383 C 236.40875 133.08295 238.6142 130.9271 239.69141 128.70312 C 240.76861 126.47916 240.66154 124.33302 239.36719 122.26758 C 238.20559 120.41397 236.70023 119.36595 234.85156 119.12305 C 233.02938 118.86355 230.06787 119.46532 225.96875 120.92773 L 219.22852 123.32617 C 212.50046 125.77224 206.8889 126.46671 202.39258 125.41211 C 197.92273 124.34091 194.21159 121.44978 191.25781 116.73633 C 187.55729 110.83127 186.61764 105.09452 188.43945 99.527344 C 190.26127 93.960163 194.74687 88.937482 201.89648 84.457031 C 205.15353 82.415938 208.66027 80.568195 212.41797 78.914062 C 216.15907 77.233449 220.17794 75.729185 224.47266 74.402344 z M 583.84375 76.769531 C 589.06955 76.646629 594.81502 78.538388 601.07812 82.447266 C 604.33893 84.482362 607.53402 86.827805 610.66602 89.482422 C 613.81459 92.110529 616.92527 95.064988 619.99805 98.345703 L 612.15625 110.91211 C 609.80546 107.41893 607.31033 104.33242 604.67188 101.6543 C 602.03341 98.976176 599.33521 96.777374 596.57812 95.056641 C 592.91968 92.77336 589.90187 91.58851 587.52344 91.503906 C 585.14503 91.419295 583.29434 92.437742 581.9707 94.558594 C 580.97797 96.149226 580.7828 97.75931 581.38672 99.388672 C 582.03367 101.00807 583.70941 103.1037 586.41406 105.67578 L 592.11719 111.05859 C 597.89105 116.50395 601.32591 121.44732 602.42188 125.88867 C 603.51783 130.33003 602.51094 135.04336 599.40039 140.02734 C 595.31364 146.57545 590.32093 150.23613 584.42188 151.01172 C 578.56588 151.77734 571.64763 149.6716 563.66797 144.69141 C 559.90346 142.34194 556.34818 139.62476 553.00391 136.54297 C 549.65963 133.46118 546.53128 130.03474 543.61719 126.26367 L 551.68359 113.33984 C 554.21716 117.72065 556.92408 121.52921 559.80469 124.76367 C 562.72838 127.98817 565.83379 130.62609 569.12109 132.67773 C 572.46142 134.76247 575.36676 135.80176 577.83789 135.79688 C 580.309 135.79209 582.18991 134.75543 583.48047 132.6875 C 584.63867 130.83176 584.9228 129.02045 584.33203 127.25195 C 583.7678 125.50001 581.93136 123.10215 578.82227 120.05664 L 573.71484 115.04492 C 568.57068 110.06622 565.48857 105.32465 564.46875 100.82031 C 563.47544 96.332522 564.45138 91.730595 567.39648 87.011719 C 571.08613 81.099867 575.83376 77.744025 581.63672 76.945312 C 582.36209 76.845475 583.09721 76.787089 583.84375 76.769531 z M 403.09375 109.31836 C 472.13686 109.31836 535.44736 132.87967 585.47852 172.42578 L 172.42773 585.47656 C 132.87898 535.44505 109.31641 472.13207 109.31641 403.08789 C 109.31641 240.2811 240.28696 109.31836 403.09375 109.31836 z M 649.99805 118.91602 L 671.17773 140.0957 C 677.47559 146.39319 680.90249 152.62399 681.45508 158.78906 C 682.05189 164.95413 679.76432 170.6221 674.59375 175.79297 C 669.40108 180.98594 663.71065 183.29505 657.52344 182.7207 C 651.38045 182.14636 645.16113 178.71155 638.86328 172.41406 L 630.44336 163.99414 L 613.27344 181.16406 L 600.51367 168.4043 L 649.99805 118.91602 z M 142.93164 132.06445 L 211 162.66406 L 198.2793 175.5957 L 186.09961 169.79492 L 166.31055 189.91211 L 172.27734 202.02734 L 159.55469 214.96094 L 127.8418 147.40234 L 142.93164 132.06445 z M 653.51172 140.92383 L 639.69141 154.74609 L 646.75 161.80664 C 649.22496 164.28144 651.73424 165.59539 654.27539 165.75 C 656.83867 165.88251 659.22396 164.84454 661.43359 162.63477 C 663.64326 160.42499 664.67234 158.04898 664.51758 155.50781 C 664.36287 152.96665 663.04725 150.45917 660.57227 147.98438 L 653.51172 140.92383 z M 147.09961 151.22266 L 160.20898 177.59766 L 173.6543 163.93164 L 147.09961 151.22266 z M 707.8418 182.30859 L 733.87109 223.47266 L 722.3418 230.76172 L 705.95703 204.85156 L 694.94336 211.81641 L 710.34961 236.18164 L 698.82031 243.47266 L 683.41406 219.10547 L 669.86328 227.67383 L 686.79883 254.45703 L 675.26953 261.74609 L 648.68945 219.71094 L 707.8418 182.30859 z M 95.490234 186.2168 L 107.125 193.33789 L 91.123047 219.48633 L 102.23828 226.28711 L 117.28516 201.69727 L 128.92188 208.81836 L 113.875 233.4082 L 127.54883 241.77539 L 144.08789 214.74609 L 155.72266 221.86523 L 129.76367 264.28906 L 70.068359 227.75977 L 95.490234 186.2168 z M 649.26172 242.26953 C 679.37996 288.41046 696.87109 343.61853 696.87109 403.08789 C 696.87109 565.89471 565.90057 696.86523 403.09375 696.86523 C 343.62512 696.86523 288.41527 679.37537 242.27344 649.25781 L 649.26172 242.26953 z M 727.17578 258.10352 C 732.58003 257.96874 737.6456 259.09809 742.37109 261.49023 C 750.80143 265.73248 756.9615 273.34794 760.85156 284.33594 C 762.15517 288.01823 762.99461 291.69916 763.36914 295.37891 C 763.74364 299.05863 763.67305 302.74523 763.1582 306.44141 L 749.50391 311.27539 C 750.53846 307.36204 751.01466 303.69758 750.93164 300.2793 C 750.84849 296.86104 750.20706 293.45803 749.00781 290.07031 C 746.85943 284.00188 743.22657 279.91781 738.10742 277.81836 C 732.98828 275.71891 727.01012 275.87928 720.17578 278.29883 C 713.37089 280.70792 708.64029 284.33867 705.98242 289.19141 C 703.32453 294.04414 703.07037 299.50386 705.21875 305.57227 C 706.41809 308.95998 708.06029 312.00771 710.14648 314.7168 C 712.23271 317.42589 714.90941 319.97646 718.17578 322.36719 L 704.52148 327.20117 C 701.79579 324.65218 699.42067 321.83008 697.39648 318.73438 C 695.37232 315.63869 693.70793 312.2487 692.4043 308.56641 C 688.51426 297.57841 688.49781 287.79039 692.35156 279.19922 C 696.23483 270.59759 703.43451 264.4341 713.95117 260.71094 C 718.56509 259.07748 722.97247 258.20834 727.17578 258.10352 z M 111.54883 269.97656 L 124.4043 274.53711 L 107.77734 321.41016 L 41.820312 298.01172 L 47.853516 281.00391 L 100.95508 299.83984 L 111.54883 269.97656 z M 772.29688 326.96484 L 779.81641 391.02539 L 766.26953 392.61523 L 763.56445 369.57031 L 707.60352 376.14062 L 705.5 358.2168 L 761.45898 351.64648 L 758.74805 328.55664 L 772.29688 326.96484 z M 53.097656 327.60156 C 54.361281 327.59073 55.67278 327.67107 57.033203 327.8418 C 64.3198 328.75624 69.63406 331.83209 72.976562 337.07031 C 76.291951 342.27364 77.396108 349.29392 76.287109 358.13086 L 74.802734 369.94336 L 98.896484 372.9668 L 96.648438 390.875 L 27.208984 382.16016 L 30.939453 352.43945 C 32.048453 343.60251 34.867156 337.07433 39.396484 332.85547 C 43.054533 329.39931 47.62195 327.64849 53.097656 327.60156 z M 52.501953 346.20703 C 50.399371 346.3034 48.631065 346.98318 47.197266 348.24414 C 45.285535 349.92543 44.111599 352.50185 43.675781 355.97461 L 42.431641 365.88086 L 61.828125 368.31641 L 63.070312 358.4082 C 63.50613 354.93545 63.005361 352.14841 61.568359 350.04688 C 60.100351 347.94145 57.815523 346.69578 54.714844 346.30664 C 53.939674 346.20936 53.202814 346.17491 52.501953 346.20703 z M 131.10547 549.82031 L 144.49219 568.48633 L 123.3457 603.26367 L 163.12305 594.46289 L 176.48242 613.08984 L 119.61133 653.87695 L 109.66797 640.01172 L 151.26367 610.17969 L 111.20312 619.06836 L 104.53711 609.77344 L 125.80273 574.67969 L 84.207031 604.51172 L 74.236328 590.60742 L 131.10547 549.82031 z M 672.35547 553.93359 L 689.48242 599.30078 L 713.35156 616.61133 L 702.75781 631.2207 L 678.88867 613.91016 L 630.44336 611.72656 L 642.0293 595.75 L 671.57422 597.48828 L 660.74219 569.94727 L 672.35547 553.93359 z M 180.44336 616.73047 L 195.6543 629.30078 L 192.05273 658.67773 L 220.22461 649.60742 L 235.47266 662.20898 L 189.11328 676.43555 L 170.33008 699.16406 L 156.41797 687.66602 L 175.20117 664.93945 L 180.44336 616.73047 z M 629.25391 617.7207 L 638.79102 628.62305 C 634.77229 629.10748 631.18869 630.01933 628.04297 631.35938 C 624.89722 632.69941 621.97254 634.55191 619.26758 636.91797 C 614.42222 641.15636 611.96982 646.04162 611.91016 651.57422 C 611.85044 657.10682 614.2071 662.60166 618.98047 668.05859 C 623.7332 673.49199 628.85435 676.5476 634.3457 677.22461 C 639.83705 677.9016 645.00618 676.12117 649.85156 671.88281 C 652.55649 669.51673 654.78263 666.86329 656.5293 663.92383 C 658.27597 660.98434 659.65705 657.55523 660.67188 653.63672 L 670.20703 664.53906 C 668.84539 668.01363 667.10151 671.26438 664.97266 674.28906 C 662.8438 677.31372 660.30929 680.11175 657.36914 682.68359 C 648.59572 690.3579 639.50482 693.99114 630.09766 693.58398 C 620.66995 693.15332 612.28263 688.73887 604.9375 680.3418 C 597.57178 671.92119 594.31398 663.02222 595.16211 653.64453 C 595.98965 644.24333 600.78908 635.70558 609.5625 628.03125 C 612.50267 625.45943 615.6135 623.32077 618.89453 621.61328 C 622.17556 619.90579 625.62906 618.60793 629.25391 617.7207 z M 555.83594 669.11914 L 611.49805 718.83594 L 595.46484 727.32617 L 585.60547 718.12109 L 560.66797 731.32617 L 562.69922 744.67773 L 546.66797 753.16797 L 536.82227 679.18945 L 555.83594 669.11914 z M 277.0918 683.85352 L 305.37109 693.73242 C 313.7791 696.66954 319.57065 700.79421 322.74609 706.10742 C 325.96134 711.40143 326.36272 717.50089 323.95117 724.4043 C 321.52932 731.33721 317.40659 735.88864 311.58398 738.05859 C 305.80119 740.20932 298.70683 739.81603 290.29883 736.87891 L 279.05859 732.95312 L 271.05078 755.875 L 254.01367 749.92383 L 277.0918 683.85352 z M 554.0293 688.64258 L 558.56641 717.74609 L 575.50977 708.77344 L 554.0293 688.64258 z M 520.01562 689.35938 L 512.75781 763.63672 L 491.95117 769.11133 L 449.07227 708.0293 L 466.61523 703.41211 L 497.71289 748.64258 L 502.47266 693.97656 L 520.01562 689.35938 z M 289.81641 702.15234 L 283.37109 720.60547 L 292.79688 723.89844 C 296.10106 725.05268 298.93099 725.1481 301.28711 724.18359 C 303.65353 723.18963 305.35224 721.21775 306.38281 718.26758 C 307.41339 715.3174 307.30754 712.73152 306.06445 710.50977 C 304.82135 708.28803 302.54638 706.59956 299.24219 705.44531 L 289.81641 702.15234 z M 342.97266 705.02344 L 370.38672 707.87891 C 379.55582 708.83432 386.10931 711.07294 390.04688 714.59375 C 394.01552 718.11778 395.65205 723.20593 394.95898 729.85742 C 394.47964 734.45751 392.9674 738.11637 390.42188 740.83594 C 387.90738 743.55876 384.34026 745.38605 379.71875 746.31836 C 382.1159 747.13368 384.17472 748.63614 385.89453 750.82617 C 387.64864 752.98836 389.31139 756.17967 390.88281 760.39648 L 398.56641 781.17969 L 379.45117 779.1875 L 372.76758 761.00586 C 371.42081 757.3466 369.92793 754.7871 368.28906 753.32812 C 366.68127 751.87241 364.41778 750.99193 361.49609 750.6875 L 356.41406 750.1582 L 353.66992 776.5 L 335.71875 774.63086 L 342.97266 705.02344 z M 436.79492 707.90234 L 442.36133 777.66406 L 424.37109 779.09961 L 418.80469 709.33789 L 436.79492 707.90234 z M 359.56641 719.90039 L 357.70703 737.75781 L 365.25977 738.54492 C 369.02066 738.93678 371.78098 738.51737 373.54297 737.28711 C 375.33604 736.06007 376.39884 733.84594 376.73242 730.64453 C 377.06277 727.47421 376.47553 725.11933 374.9707 723.58008 C 373.49695 722.04405 370.88003 721.07936 367.11914 720.6875 L 359.56641 719.90039 z " transform="matrix(0.26458333,0,0,0.26458333,0.02407837,35.269325)" id="path4487"/>
  </g>
<head xmlns=""/></svg>